<mxfile host="Electron" modified="2023-04-25T09:51:20.897Z" agent="Mozilla/5.0 (X11; Linux x86_64) AppleWebKit/537.36 (KHTML, like Gecko) draw.io/21.2.1 Chrome/112.0.5615.87 Electron/24.1.2 Safari/537.36" etag="9hIkO-u-gfdGWNNehbcI" version="21.2.1" type="device">
  <diagram name="Page-1" id="t5FouNlxJUMaUiQwsQsk">
    <mxGraphModel dx="1819" dy="635" grid="1" gridSize="10" guides="1" tooltips="1" connect="1" arrows="1" fold="1" page="1" pageScale="1" pageWidth="827" pageHeight="1169" math="0" shadow="0">
      <root>
        <mxCell id="0" />
        <mxCell id="1" parent="0" />
        <mxCell id="TucZAH5Yyn0gXILIAprT-1" value="5" style="shape=or;whiteSpace=wrap;html=1;" parent="1" vertex="1">
          <mxGeometry x="730" y="100" width="60" height="80" as="geometry" />
        </mxCell>
        <mxCell id="TucZAH5Yyn0gXILIAprT-3" value="2" style="whiteSpace=wrap;html=1;aspect=fixed;" parent="1" vertex="1">
          <mxGeometry x="570" y="100" width="40" height="40" as="geometry" />
        </mxCell>
        <mxCell id="TucZAH5Yyn0gXILIAprT-4" value="3" style="rounded=0;whiteSpace=wrap;html=1;" parent="1" vertex="1">
          <mxGeometry x="610" y="100" width="120" height="40" as="geometry" />
        </mxCell>
        <mxCell id="TucZAH5Yyn0gXILIAprT-5" value="4" style="rounded=0;whiteSpace=wrap;html=1;" parent="1" vertex="1">
          <mxGeometry x="570" y="140" width="160" height="40" as="geometry" />
        </mxCell>
        <mxCell id="TucZAH5Yyn0gXILIAprT-7" value="" style="group" parent="1" vertex="1" connectable="0">
          <mxGeometry x="510" y="100" width="60" height="80" as="geometry" />
        </mxCell>
        <mxCell id="TucZAH5Yyn0gXILIAprT-2" value="" style="shape=or;whiteSpace=wrap;html=1;rotation=-180;" parent="TucZAH5Yyn0gXILIAprT-7" vertex="1">
          <mxGeometry width="60" height="80" as="geometry" />
        </mxCell>
        <mxCell id="TucZAH5Yyn0gXILIAprT-6" value="1" style="text;html=1;align=center;verticalAlign=middle;resizable=0;points=[];autosize=1;strokeColor=none;fillColor=none;" parent="TucZAH5Yyn0gXILIAprT-7" vertex="1">
          <mxGeometry x="15" y="25" width="30" height="30" as="geometry" />
        </mxCell>
        <mxCell id="TucZAH5Yyn0gXILIAprT-8" value="" style="group" parent="1" vertex="1" connectable="0">
          <mxGeometry x="10" y="240" width="60" height="80" as="geometry" />
        </mxCell>
        <mxCell id="TucZAH5Yyn0gXILIAprT-9" value="" style="shape=or;whiteSpace=wrap;html=1;rotation=-180;" parent="TucZAH5Yyn0gXILIAprT-8" vertex="1">
          <mxGeometry width="60" height="80" as="geometry" />
        </mxCell>
        <mxCell id="TucZAH5Yyn0gXILIAprT-10" value="1" style="text;html=1;align=center;verticalAlign=middle;resizable=0;points=[];autosize=1;strokeColor=none;fillColor=none;" parent="TucZAH5Yyn0gXILIAprT-8" vertex="1">
          <mxGeometry x="15" y="25" width="30" height="30" as="geometry" />
        </mxCell>
        <mxCell id="TucZAH5Yyn0gXILIAprT-12" value="3" style="rounded=0;whiteSpace=wrap;html=1;" parent="1" vertex="1">
          <mxGeometry x="380" y="240" width="120" height="40" as="geometry" />
        </mxCell>
        <mxCell id="TucZAH5Yyn0gXILIAprT-17" value="" style="group" parent="1" vertex="1" connectable="0">
          <mxGeometry x="130" y="240" width="60" height="80" as="geometry" />
        </mxCell>
        <mxCell id="TucZAH5Yyn0gXILIAprT-18" value="" style="shape=or;whiteSpace=wrap;html=1;rotation=-180;" parent="TucZAH5Yyn0gXILIAprT-17" vertex="1">
          <mxGeometry width="60" height="80" as="geometry" />
        </mxCell>
        <mxCell id="TucZAH5Yyn0gXILIAprT-19" value="1" style="text;html=1;align=center;verticalAlign=middle;resizable=0;points=[];autosize=1;strokeColor=none;fillColor=none;" parent="TucZAH5Yyn0gXILIAprT-17" vertex="1">
          <mxGeometry x="15" y="25" width="30" height="30" as="geometry" />
        </mxCell>
        <mxCell id="TucZAH5Yyn0gXILIAprT-20" value="2" style="whiteSpace=wrap;html=1;aspect=fixed;" parent="1" vertex="1">
          <mxGeometry x="190" y="240" width="40" height="40" as="geometry" />
        </mxCell>
        <mxCell id="TucZAH5Yyn0gXILIAprT-21" value="" style="group" parent="1" vertex="1" connectable="0">
          <mxGeometry x="280" y="240" width="60" height="80" as="geometry" />
        </mxCell>
        <mxCell id="TucZAH5Yyn0gXILIAprT-22" value="" style="shape=or;whiteSpace=wrap;html=1;rotation=-180;" parent="TucZAH5Yyn0gXILIAprT-21" vertex="1">
          <mxGeometry width="60" height="80" as="geometry" />
        </mxCell>
        <mxCell id="TucZAH5Yyn0gXILIAprT-23" value="1" style="text;html=1;align=center;verticalAlign=middle;resizable=0;points=[];autosize=1;strokeColor=none;fillColor=none;" parent="TucZAH5Yyn0gXILIAprT-21" vertex="1">
          <mxGeometry x="15" y="25" width="30" height="30" as="geometry" />
        </mxCell>
        <mxCell id="TucZAH5Yyn0gXILIAprT-24" value="2" style="whiteSpace=wrap;html=1;aspect=fixed;" parent="1" vertex="1">
          <mxGeometry x="340" y="240" width="40" height="40" as="geometry" />
        </mxCell>
        <mxCell id="TucZAH5Yyn0gXILIAprT-25" value="3" style="rounded=0;whiteSpace=wrap;html=1;" parent="1" vertex="1">
          <mxGeometry x="640" y="240" width="120" height="40" as="geometry" />
        </mxCell>
        <mxCell id="TucZAH5Yyn0gXILIAprT-26" value="" style="group" parent="1" vertex="1" connectable="0">
          <mxGeometry x="540" y="240" width="60" height="80" as="geometry" />
        </mxCell>
        <mxCell id="TucZAH5Yyn0gXILIAprT-27" value="" style="shape=or;whiteSpace=wrap;html=1;rotation=-180;" parent="TucZAH5Yyn0gXILIAprT-26" vertex="1">
          <mxGeometry width="60" height="80" as="geometry" />
        </mxCell>
        <mxCell id="TucZAH5Yyn0gXILIAprT-28" value="1" style="text;html=1;align=center;verticalAlign=middle;resizable=0;points=[];autosize=1;strokeColor=none;fillColor=none;" parent="TucZAH5Yyn0gXILIAprT-26" vertex="1">
          <mxGeometry x="15" y="25" width="30" height="30" as="geometry" />
        </mxCell>
        <mxCell id="TucZAH5Yyn0gXILIAprT-29" value="2" style="whiteSpace=wrap;html=1;aspect=fixed;" parent="1" vertex="1">
          <mxGeometry x="600" y="240" width="40" height="40" as="geometry" />
        </mxCell>
        <mxCell id="TucZAH5Yyn0gXILIAprT-30" value="4" style="rounded=0;whiteSpace=wrap;html=1;" parent="1" vertex="1">
          <mxGeometry x="600" y="280" width="160" height="40" as="geometry" />
        </mxCell>
        <mxCell id="TucZAH5Yyn0gXILIAprT-31" value="5" style="shape=or;whiteSpace=wrap;html=1;" parent="1" vertex="1">
          <mxGeometry x="1040" y="240" width="60" height="80" as="geometry" />
        </mxCell>
        <mxCell id="TucZAH5Yyn0gXILIAprT-32" value="2" style="whiteSpace=wrap;html=1;aspect=fixed;" parent="1" vertex="1">
          <mxGeometry x="880" y="240" width="40" height="40" as="geometry" />
        </mxCell>
        <mxCell id="TucZAH5Yyn0gXILIAprT-33" value="3" style="rounded=0;whiteSpace=wrap;html=1;" parent="1" vertex="1">
          <mxGeometry x="920" y="240" width="120" height="40" as="geometry" />
        </mxCell>
        <mxCell id="TucZAH5Yyn0gXILIAprT-34" value="4" style="rounded=0;whiteSpace=wrap;html=1;" parent="1" vertex="1">
          <mxGeometry x="880" y="280" width="160" height="40" as="geometry" />
        </mxCell>
        <mxCell id="TucZAH5Yyn0gXILIAprT-35" value="" style="group" parent="1" vertex="1" connectable="0">
          <mxGeometry x="820" y="240" width="60" height="80" as="geometry" />
        </mxCell>
        <mxCell id="TucZAH5Yyn0gXILIAprT-36" value="" style="shape=or;whiteSpace=wrap;html=1;rotation=-180;" parent="TucZAH5Yyn0gXILIAprT-35" vertex="1">
          <mxGeometry width="60" height="80" as="geometry" />
        </mxCell>
        <mxCell id="TucZAH5Yyn0gXILIAprT-37" value="1" style="text;html=1;align=center;verticalAlign=middle;resizable=0;points=[];autosize=1;strokeColor=none;fillColor=none;" parent="TucZAH5Yyn0gXILIAprT-35" vertex="1">
          <mxGeometry x="15" y="25" width="30" height="30" as="geometry" />
        </mxCell>
        <mxCell id="TucZAH5Yyn0gXILIAprT-38" value="5" style="shape=or;whiteSpace=wrap;html=1;rotation=45;" parent="1" vertex="1">
          <mxGeometry x="280" y="490" width="60" height="80" as="geometry" />
        </mxCell>
        <mxCell id="TucZAH5Yyn0gXILIAprT-39" value="2" style="whiteSpace=wrap;html=1;aspect=fixed;rotation=60;" parent="1" vertex="1">
          <mxGeometry x="120" y="580" width="40" height="40" as="geometry" />
        </mxCell>
        <mxCell id="TucZAH5Yyn0gXILIAprT-40" value="3" style="rounded=0;whiteSpace=wrap;html=1;rotation=90;" parent="1" vertex="1">
          <mxGeometry x="140" y="450" width="120" height="40" as="geometry" />
        </mxCell>
        <mxCell id="TucZAH5Yyn0gXILIAprT-41" value="4" style="rounded=0;whiteSpace=wrap;html=1;rotation=-150;" parent="1" vertex="1">
          <mxGeometry x="230" y="620" width="160" height="40" as="geometry" />
        </mxCell>
        <mxCell id="TucZAH5Yyn0gXILIAprT-42" value="" style="group;rotation=-20;" parent="1" vertex="1" connectable="0">
          <mxGeometry x="20" y="460" width="60" height="80" as="geometry" />
        </mxCell>
        <mxCell id="TucZAH5Yyn0gXILIAprT-43" value="" style="shape=or;whiteSpace=wrap;html=1;rotation=-200;" parent="TucZAH5Yyn0gXILIAprT-42" vertex="1">
          <mxGeometry width="60" height="80" as="geometry" />
        </mxCell>
        <mxCell id="TucZAH5Yyn0gXILIAprT-44" value="1" style="text;html=1;align=center;verticalAlign=middle;resizable=0;points=[];autosize=1;strokeColor=none;fillColor=none;rotation=-20;" parent="TucZAH5Yyn0gXILIAprT-42" vertex="1">
          <mxGeometry x="15" y="25" width="30" height="30" as="geometry" />
        </mxCell>
        <mxCell id="TucZAH5Yyn0gXILIAprT-45" value="" style="ellipse;whiteSpace=wrap;html=1;aspect=fixed;" parent="1" vertex="1">
          <mxGeometry x="420" y="520" width="50" height="50" as="geometry" />
        </mxCell>
        <mxCell id="TucZAH5Yyn0gXILIAprT-46" value="" style="ellipse;shape=cloud;whiteSpace=wrap;html=1;" parent="1" vertex="1">
          <mxGeometry x="380" y="420" width="80" height="60" as="geometry" />
        </mxCell>
        <mxCell id="TucZAH5Yyn0gXILIAprT-47" value="" style="whiteSpace=wrap;html=1;aspect=fixed;rotation=-25;" parent="1" vertex="1">
          <mxGeometry x="480" y="585" width="55" height="55" as="geometry" />
        </mxCell>
        <mxCell id="YpJqbOYXcXFQYlA_I8Vj-1" value="1" style="ellipse;whiteSpace=wrap;html=1;aspect=fixed;" parent="1" vertex="1">
          <mxGeometry x="610" y="524" width="40" height="40" as="geometry" />
        </mxCell>
        <mxCell id="YpJqbOYXcXFQYlA_I8Vj-6" style="rounded=0;orthogonalLoop=1;jettySize=auto;html=1;exitX=0;exitY=0.5;exitDx=0;exitDy=0;entryX=1;entryY=0.5;entryDx=0;entryDy=0;endArrow=none;endFill=0;" parent="1" source="YpJqbOYXcXFQYlA_I8Vj-2" target="YpJqbOYXcXFQYlA_I8Vj-1" edge="1">
          <mxGeometry relative="1" as="geometry" />
        </mxCell>
        <mxCell id="YpJqbOYXcXFQYlA_I8Vj-7" style="rounded=0;orthogonalLoop=1;jettySize=auto;html=1;exitX=0.5;exitY=1;exitDx=0;exitDy=0;entryX=0;entryY=0;entryDx=0;entryDy=0;endArrow=none;endFill=0;" parent="1" source="YpJqbOYXcXFQYlA_I8Vj-2" target="YpJqbOYXcXFQYlA_I8Vj-3" edge="1">
          <mxGeometry relative="1" as="geometry" />
        </mxCell>
        <mxCell id="YpJqbOYXcXFQYlA_I8Vj-2" value="2" style="ellipse;whiteSpace=wrap;html=1;aspect=fixed;" parent="1" vertex="1">
          <mxGeometry x="730" y="534" width="40" height="40" as="geometry" />
        </mxCell>
        <mxCell id="YpJqbOYXcXFQYlA_I8Vj-3" value="3" style="ellipse;whiteSpace=wrap;html=1;aspect=fixed;" parent="1" vertex="1">
          <mxGeometry x="770" y="629" width="40" height="40" as="geometry" />
        </mxCell>
        <mxCell id="YpJqbOYXcXFQYlA_I8Vj-8" style="rounded=0;orthogonalLoop=1;jettySize=auto;html=1;exitX=0.5;exitY=0;exitDx=0;exitDy=0;entryX=0.5;entryY=1;entryDx=0;entryDy=0;endArrow=none;endFill=0;" parent="1" source="YpJqbOYXcXFQYlA_I8Vj-4" target="YpJqbOYXcXFQYlA_I8Vj-1" edge="1">
          <mxGeometry relative="1" as="geometry" />
        </mxCell>
        <mxCell id="YpJqbOYXcXFQYlA_I8Vj-10" style="rounded=0;orthogonalLoop=1;jettySize=auto;html=1;exitX=1;exitY=0;exitDx=0;exitDy=0;entryX=0;entryY=1;entryDx=0;entryDy=0;endArrow=none;endFill=0;" parent="1" source="YpJqbOYXcXFQYlA_I8Vj-4" target="YpJqbOYXcXFQYlA_I8Vj-2" edge="1">
          <mxGeometry relative="1" as="geometry" />
        </mxCell>
        <mxCell id="YpJqbOYXcXFQYlA_I8Vj-11" style="rounded=0;orthogonalLoop=1;jettySize=auto;html=1;exitX=1;exitY=1;exitDx=0;exitDy=0;entryX=0;entryY=0.5;entryDx=0;entryDy=0;endArrow=none;endFill=0;" parent="1" source="YpJqbOYXcXFQYlA_I8Vj-4" target="YpJqbOYXcXFQYlA_I8Vj-5" edge="1">
          <mxGeometry relative="1" as="geometry" />
        </mxCell>
        <mxCell id="YpJqbOYXcXFQYlA_I8Vj-4" value="4" style="ellipse;whiteSpace=wrap;html=1;aspect=fixed;" parent="1" vertex="1">
          <mxGeometry x="620" y="649" width="40" height="40" as="geometry" />
        </mxCell>
        <mxCell id="YpJqbOYXcXFQYlA_I8Vj-12" style="rounded=0;orthogonalLoop=1;jettySize=auto;html=1;exitX=1;exitY=0;exitDx=0;exitDy=0;entryX=0.5;entryY=1;entryDx=0;entryDy=0;endArrow=none;endFill=0;" parent="1" source="YpJqbOYXcXFQYlA_I8Vj-5" target="YpJqbOYXcXFQYlA_I8Vj-3" edge="1">
          <mxGeometry relative="1" as="geometry" />
        </mxCell>
        <mxCell id="YpJqbOYXcXFQYlA_I8Vj-5" value="5" style="ellipse;whiteSpace=wrap;html=1;aspect=fixed;" parent="1" vertex="1">
          <mxGeometry x="720" y="724" width="40" height="40" as="geometry" />
        </mxCell>
        <mxCell id="YpJqbOYXcXFQYlA_I8Vj-13" value="node feature" style="swimlane;fontStyle=0;childLayout=stackLayout;horizontal=1;startSize=30;horizontalStack=0;resizeParent=1;resizeParentMax=0;resizeLast=0;collapsible=1;marginBottom=0;whiteSpace=wrap;html=1;" parent="1" vertex="1">
          <mxGeometry x="933" y="404" width="100" height="120" as="geometry" />
        </mxCell>
        <mxCell id="YpJqbOYXcXFQYlA_I8Vj-14" value="label" style="text;strokeColor=none;fillColor=none;align=left;verticalAlign=middle;spacingLeft=4;spacingRight=4;overflow=hidden;points=[[0,0.5],[1,0.5]];portConstraint=eastwest;rotatable=0;whiteSpace=wrap;html=1;" parent="YpJqbOYXcXFQYlA_I8Vj-13" vertex="1">
          <mxGeometry y="30" width="100" height="30" as="geometry" />
        </mxCell>
        <mxCell id="YpJqbOYXcXFQYlA_I8Vj-15" value="feature" style="text;strokeColor=none;fillColor=none;align=left;verticalAlign=middle;spacingLeft=4;spacingRight=4;overflow=hidden;points=[[0,0.5],[1,0.5]];portConstraint=eastwest;rotatable=0;whiteSpace=wrap;html=1;" parent="YpJqbOYXcXFQYlA_I8Vj-13" vertex="1">
          <mxGeometry y="60" width="100" height="30" as="geometry" />
        </mxCell>
        <mxCell id="YpJqbOYXcXFQYlA_I8Vj-16" value="order" style="text;strokeColor=none;fillColor=none;align=left;verticalAlign=middle;spacingLeft=4;spacingRight=4;overflow=hidden;points=[[0,0.5],[1,0.5]];portConstraint=eastwest;rotatable=0;whiteSpace=wrap;html=1;" parent="YpJqbOYXcXFQYlA_I8Vj-13" vertex="1">
          <mxGeometry y="90" width="100" height="30" as="geometry" />
        </mxCell>
        <mxCell id="YpJqbOYXcXFQYlA_I8Vj-19" value="" style="endArrow=none;dashed=1;html=1;dashPattern=1 3;strokeWidth=2;rounded=0;" parent="1" edge="1">
          <mxGeometry width="50" height="50" relative="1" as="geometry">
            <mxPoint x="783" y="544" as="sourcePoint" />
            <mxPoint x="923" y="424" as="targetPoint" />
          </mxGeometry>
        </mxCell>
        <mxCell id="YpJqbOYXcXFQYlA_I8Vj-21" value="edge feature" style="swimlane;fontStyle=0;childLayout=stackLayout;horizontal=1;startSize=30;horizontalStack=0;resizeParent=1;resizeParentMax=0;resizeLast=0;collapsible=1;marginBottom=0;whiteSpace=wrap;html=1;" parent="1" vertex="1">
          <mxGeometry x="943" y="594" width="90" height="60" as="geometry" />
        </mxCell>
        <mxCell id="YpJqbOYXcXFQYlA_I8Vj-22" value="relative pos" style="text;strokeColor=none;fillColor=none;align=left;verticalAlign=middle;spacingLeft=4;spacingRight=4;overflow=hidden;points=[[0,0.5],[1,0.5]];portConstraint=eastwest;rotatable=0;whiteSpace=wrap;html=1;" parent="YpJqbOYXcXFQYlA_I8Vj-21" vertex="1">
          <mxGeometry y="30" width="90" height="30" as="geometry" />
        </mxCell>
        <mxCell id="YpJqbOYXcXFQYlA_I8Vj-26" style="edgeStyle=orthogonalEdgeStyle;rounded=0;orthogonalLoop=1;jettySize=auto;html=1;exitX=0.75;exitY=0;exitDx=0;exitDy=0;entryX=0.5;entryY=0;entryDx=0;entryDy=0;" parent="1" source="YpJqbOYXcXFQYlA_I8Vj-21" target="YpJqbOYXcXFQYlA_I8Vj-21" edge="1">
          <mxGeometry relative="1" as="geometry" />
        </mxCell>
        <mxCell id="YpJqbOYXcXFQYlA_I8Vj-27" value="" style="endArrow=none;dashed=1;html=1;dashPattern=1 3;strokeWidth=2;rounded=0;" parent="1" edge="1">
          <mxGeometry width="50" height="50" relative="1" as="geometry">
            <mxPoint x="773" y="594" as="sourcePoint" />
            <mxPoint x="923" y="614" as="targetPoint" />
          </mxGeometry>
        </mxCell>
        <mxCell id="XgMX9Aq9Zta1VLVGYXDT-1" value="" style="endArrow=none;dashed=1;html=1;dashPattern=1 3;strokeWidth=2;rounded=0;" parent="1" edge="1">
          <mxGeometry width="50" height="50" relative="1" as="geometry">
            <mxPoint y="200" as="sourcePoint" />
            <mxPoint x="1090" y="200" as="targetPoint" />
          </mxGeometry>
        </mxCell>
        <mxCell id="XgMX9Aq9Zta1VLVGYXDT-2" value="" style="endArrow=none;dashed=1;html=1;dashPattern=1 3;strokeWidth=2;rounded=0;" parent="1" edge="1">
          <mxGeometry width="50" height="50" relative="1" as="geometry">
            <mxPoint x="-5" y="360" as="sourcePoint" />
            <mxPoint x="1085" y="360" as="targetPoint" />
          </mxGeometry>
        </mxCell>
        <mxCell id="XgMX9Aq9Zta1VLVGYXDT-3" value="" style="endArrow=none;dashed=1;html=1;dashPattern=1 3;strokeWidth=2;rounded=0;" parent="1" edge="1">
          <mxGeometry width="50" height="50" relative="1" as="geometry">
            <mxPoint x="560" y="720" as="sourcePoint" />
            <mxPoint x="560" y="360" as="targetPoint" />
          </mxGeometry>
        </mxCell>
        <mxCell id="BSkCamuPjItsBN7cK3fT-1" value="Base" style="rounded=0;whiteSpace=wrap;html=1;fontSize=20;" vertex="1" parent="1">
          <mxGeometry x="1740" y="236.5" width="270" height="60" as="geometry" />
        </mxCell>
        <mxCell id="BSkCamuPjItsBN7cK3fT-2" value="Part2" style="whiteSpace=wrap;html=1;aspect=fixed;" vertex="1" parent="1">
          <mxGeometry x="1740" y="356.5" width="50" height="50" as="geometry" />
        </mxCell>
        <mxCell id="BSkCamuPjItsBN7cK3fT-4" value="Part3" style="ellipse;whiteSpace=wrap;html=1;" vertex="1" parent="1">
          <mxGeometry x="1820" y="353.5" width="90" height="56" as="geometry" />
        </mxCell>
        <mxCell id="BSkCamuPjItsBN7cK3fT-5" value="Part4" style="ellipse;whiteSpace=wrap;html=1;aspect=fixed;" vertex="1" parent="1">
          <mxGeometry x="1940" y="353.5" width="53" height="53" as="geometry" />
        </mxCell>
        <mxCell id="BSkCamuPjItsBN7cK3fT-6" value="Part2" style="whiteSpace=wrap;html=1;aspect=fixed;" vertex="1" parent="1">
          <mxGeometry x="1730" y="426.5" width="50" height="50" as="geometry" />
        </mxCell>
        <mxCell id="BSkCamuPjItsBN7cK3fT-7" value="Part2" style="whiteSpace=wrap;html=1;aspect=fixed;" vertex="1" parent="1">
          <mxGeometry x="1780" y="496.5" width="50" height="50" as="geometry" />
        </mxCell>
        <mxCell id="BSkCamuPjItsBN7cK3fT-8" value="Part3" style="ellipse;whiteSpace=wrap;html=1;" vertex="1" parent="1">
          <mxGeometry x="1850" y="440.5" width="90" height="56" as="geometry" />
        </mxCell>
        <mxCell id="BSkCamuPjItsBN7cK3fT-9" value="2" style="ellipse;whiteSpace=wrap;html=1;aspect=fixed;" vertex="1" parent="1">
          <mxGeometry x="2330" y="380" width="40" height="40" as="geometry" />
        </mxCell>
        <mxCell id="BSkCamuPjItsBN7cK3fT-20" style="rounded=0;orthogonalLoop=1;jettySize=auto;html=1;exitX=1;exitY=0.5;exitDx=0;exitDy=0;entryX=0;entryY=0.5;entryDx=0;entryDy=0;endArrow=none;endFill=0;" edge="1" parent="1" source="BSkCamuPjItsBN7cK3fT-10" target="BSkCamuPjItsBN7cK3fT-18">
          <mxGeometry relative="1" as="geometry" />
        </mxCell>
        <mxCell id="BSkCamuPjItsBN7cK3fT-21" style="rounded=0;orthogonalLoop=1;jettySize=auto;html=1;exitX=0;exitY=1;exitDx=0;exitDy=0;entryX=1;entryY=0;entryDx=0;entryDy=0;endArrow=none;endFill=0;" edge="1" parent="1" source="BSkCamuPjItsBN7cK3fT-10" target="BSkCamuPjItsBN7cK3fT-19">
          <mxGeometry relative="1" as="geometry" />
        </mxCell>
        <mxCell id="BSkCamuPjItsBN7cK3fT-27" style="rounded=0;orthogonalLoop=1;jettySize=auto;html=1;exitX=0.5;exitY=1;exitDx=0;exitDy=0;entryX=1;entryY=0.5;entryDx=0;entryDy=0;endArrow=none;endFill=0;" edge="1" parent="1" source="BSkCamuPjItsBN7cK3fT-10" target="BSkCamuPjItsBN7cK3fT-15">
          <mxGeometry relative="1" as="geometry" />
        </mxCell>
        <mxCell id="BSkCamuPjItsBN7cK3fT-10" value="B" style="ellipse;whiteSpace=wrap;html=1;aspect=fixed;" vertex="1" parent="1">
          <mxGeometry x="2210" y="297" width="40" height="40" as="geometry" />
        </mxCell>
        <mxCell id="BSkCamuPjItsBN7cK3fT-11" value="" style="rounded=0;whiteSpace=wrap;html=1;fontSize=20;" vertex="1" parent="1">
          <mxGeometry x="2275" y="190" width="270" height="60" as="geometry" />
        </mxCell>
        <mxCell id="BSkCamuPjItsBN7cK3fT-12" value="Part2" style="whiteSpace=wrap;html=1;aspect=fixed;" vertex="1" parent="1">
          <mxGeometry x="2285" y="195" width="50" height="50" as="geometry" />
        </mxCell>
        <mxCell id="BSkCamuPjItsBN7cK3fT-13" value="Part3" style="ellipse;whiteSpace=wrap;html=1;" vertex="1" parent="1">
          <mxGeometry x="2370" y="196" width="90" height="48" as="geometry" />
        </mxCell>
        <mxCell id="BSkCamuPjItsBN7cK3fT-14" value="Part4" style="ellipse;whiteSpace=wrap;html=1;aspect=fixed;" vertex="1" parent="1">
          <mxGeometry x="2485" y="193.5" width="53" height="53" as="geometry" />
        </mxCell>
        <mxCell id="BSkCamuPjItsBN7cK3fT-23" style="rounded=0;orthogonalLoop=1;jettySize=auto;html=1;exitX=0.5;exitY=1;exitDx=0;exitDy=0;entryX=0;entryY=0;entryDx=0;entryDy=0;endArrow=none;endFill=0;" edge="1" parent="1" source="BSkCamuPjItsBN7cK3fT-15" target="BSkCamuPjItsBN7cK3fT-16">
          <mxGeometry relative="1" as="geometry" />
        </mxCell>
        <mxCell id="BSkCamuPjItsBN7cK3fT-15" value="3" style="ellipse;whiteSpace=wrap;html=1;aspect=fixed;" vertex="1" parent="1">
          <mxGeometry x="2140" y="404" width="40" height="40" as="geometry" />
        </mxCell>
        <mxCell id="BSkCamuPjItsBN7cK3fT-25" style="rounded=0;orthogonalLoop=1;jettySize=auto;html=1;exitX=1;exitY=0.5;exitDx=0;exitDy=0;entryX=0;entryY=1;entryDx=0;entryDy=0;endArrow=none;endFill=0;" edge="1" parent="1" source="BSkCamuPjItsBN7cK3fT-16" target="BSkCamuPjItsBN7cK3fT-17">
          <mxGeometry relative="1" as="geometry" />
        </mxCell>
        <mxCell id="BSkCamuPjItsBN7cK3fT-16" value="3" style="ellipse;whiteSpace=wrap;html=1;aspect=fixed;" vertex="1" parent="1">
          <mxGeometry x="2180" y="480" width="40" height="40" as="geometry" />
        </mxCell>
        <mxCell id="BSkCamuPjItsBN7cK3fT-26" style="rounded=0;orthogonalLoop=1;jettySize=auto;html=1;exitX=1;exitY=0;exitDx=0;exitDy=0;entryX=0.5;entryY=1;entryDx=0;entryDy=0;endArrow=none;endFill=0;" edge="1" parent="1" source="BSkCamuPjItsBN7cK3fT-17" target="BSkCamuPjItsBN7cK3fT-9">
          <mxGeometry relative="1" as="geometry" />
        </mxCell>
        <mxCell id="BSkCamuPjItsBN7cK3fT-17" value="2" style="ellipse;whiteSpace=wrap;html=1;aspect=fixed;" vertex="1" parent="1">
          <mxGeometry x="2280" y="460" width="40" height="40" as="geometry" />
        </mxCell>
        <mxCell id="BSkCamuPjItsBN7cK3fT-24" style="rounded=0;orthogonalLoop=1;jettySize=auto;html=1;exitX=1;exitY=1;exitDx=0;exitDy=0;entryX=0;entryY=0;entryDx=0;entryDy=0;endArrow=none;endFill=0;" edge="1" parent="1" source="BSkCamuPjItsBN7cK3fT-18" target="BSkCamuPjItsBN7cK3fT-9">
          <mxGeometry relative="1" as="geometry" />
        </mxCell>
        <mxCell id="BSkCamuPjItsBN7cK3fT-18" value="2" style="ellipse;whiteSpace=wrap;html=1;aspect=fixed;" vertex="1" parent="1">
          <mxGeometry x="2290" y="305" width="40" height="40" as="geometry" />
        </mxCell>
        <mxCell id="BSkCamuPjItsBN7cK3fT-22" style="rounded=0;orthogonalLoop=1;jettySize=auto;html=1;exitX=0.5;exitY=1;exitDx=0;exitDy=0;entryX=0.5;entryY=0;entryDx=0;entryDy=0;endArrow=none;endFill=0;" edge="1" parent="1" source="BSkCamuPjItsBN7cK3fT-19" target="BSkCamuPjItsBN7cK3fT-15">
          <mxGeometry relative="1" as="geometry" />
        </mxCell>
        <mxCell id="BSkCamuPjItsBN7cK3fT-19" value="4" style="ellipse;whiteSpace=wrap;html=1;aspect=fixed;" vertex="1" parent="1">
          <mxGeometry x="2150" y="340" width="40" height="40" as="geometry" />
        </mxCell>
        <mxCell id="BSkCamuPjItsBN7cK3fT-28" value="" style="endArrow=none;html=1;rounded=0;exitX=1;exitY=0.5;exitDx=0;exitDy=0;entryX=0;entryY=1;entryDx=0;entryDy=0;" edge="1" parent="1" source="BSkCamuPjItsBN7cK3fT-15" target="BSkCamuPjItsBN7cK3fT-18">
          <mxGeometry width="50" height="50" relative="1" as="geometry">
            <mxPoint x="2230" y="425" as="sourcePoint" />
            <mxPoint x="2280" y="375" as="targetPoint" />
          </mxGeometry>
        </mxCell>
        <mxCell id="BSkCamuPjItsBN7cK3fT-29" value="" style="endArrow=none;html=1;rounded=0;exitX=1;exitY=0.5;exitDx=0;exitDy=0;entryX=0;entryY=0.5;entryDx=0;entryDy=0;" edge="1" parent="1" source="BSkCamuPjItsBN7cK3fT-15" target="BSkCamuPjItsBN7cK3fT-9">
          <mxGeometry width="50" height="50" relative="1" as="geometry">
            <mxPoint x="2190" y="434" as="sourcePoint" />
            <mxPoint x="2306" y="349" as="targetPoint" />
          </mxGeometry>
        </mxCell>
        <mxCell id="BSkCamuPjItsBN7cK3fT-31" value="" style="endArrow=none;html=1;rounded=0;exitX=1;exitY=0.5;exitDx=0;exitDy=0;entryX=0.25;entryY=0;entryDx=0;entryDy=0;entryPerimeter=0;" edge="1" parent="1" source="BSkCamuPjItsBN7cK3fT-15" target="BSkCamuPjItsBN7cK3fT-17">
          <mxGeometry width="50" height="50" relative="1" as="geometry">
            <mxPoint x="2190" y="434" as="sourcePoint" />
            <mxPoint x="2210" y="490" as="targetPoint" />
          </mxGeometry>
        </mxCell>
        <mxCell id="BSkCamuPjItsBN7cK3fT-32" value="" style="endArrow=none;html=1;rounded=0;exitX=1;exitY=1;exitDx=0;exitDy=0;" edge="1" parent="1" source="BSkCamuPjItsBN7cK3fT-19">
          <mxGeometry width="50" height="50" relative="1" as="geometry">
            <mxPoint x="2190" y="434" as="sourcePoint" />
            <mxPoint x="2290" y="460" as="targetPoint" />
          </mxGeometry>
        </mxCell>
        <mxCell id="BSkCamuPjItsBN7cK3fT-33" value="" style="endArrow=none;html=1;rounded=0;exitX=0.5;exitY=1;exitDx=0;exitDy=0;" edge="1" parent="1" source="BSkCamuPjItsBN7cK3fT-10">
          <mxGeometry width="50" height="50" relative="1" as="geometry">
            <mxPoint x="2194" y="384" as="sourcePoint" />
            <mxPoint x="2290" y="460" as="targetPoint" />
          </mxGeometry>
        </mxCell>
        <mxCell id="BSkCamuPjItsBN7cK3fT-34" value="" style="endArrow=none;html=1;rounded=0;entryX=1;entryY=0;entryDx=0;entryDy=0;" edge="1" parent="1" target="BSkCamuPjItsBN7cK3fT-16">
          <mxGeometry width="50" height="50" relative="1" as="geometry">
            <mxPoint x="2300" y="340" as="sourcePoint" />
            <mxPoint x="2300" y="470" as="targetPoint" />
          </mxGeometry>
        </mxCell>
        <mxCell id="BSkCamuPjItsBN7cK3fT-35" value="" style="endArrow=none;html=1;rounded=0;entryX=1;entryY=0;entryDx=0;entryDy=0;" edge="1" parent="1" target="BSkCamuPjItsBN7cK3fT-16">
          <mxGeometry width="50" height="50" relative="1" as="geometry">
            <mxPoint x="2330" y="400" as="sourcePoint" />
            <mxPoint x="2224" y="496" as="targetPoint" />
          </mxGeometry>
        </mxCell>
        <mxCell id="BSkCamuPjItsBN7cK3fT-36" value="" style="endArrow=none;html=1;rounded=0;exitX=0.5;exitY=1;exitDx=0;exitDy=0;" edge="1" parent="1" source="BSkCamuPjItsBN7cK3fT-10">
          <mxGeometry width="50" height="50" relative="1" as="geometry">
            <mxPoint x="2240" y="347" as="sourcePoint" />
            <mxPoint x="2330" y="400" as="targetPoint" />
          </mxGeometry>
        </mxCell>
        <mxCell id="BSkCamuPjItsBN7cK3fT-37" value="" style="endArrow=none;html=1;rounded=0;entryX=0.5;entryY=0;entryDx=0;entryDy=0;" edge="1" parent="1" target="BSkCamuPjItsBN7cK3fT-16">
          <mxGeometry width="50" height="50" relative="1" as="geometry">
            <mxPoint x="2230" y="340" as="sourcePoint" />
            <mxPoint x="2310" y="480" as="targetPoint" />
          </mxGeometry>
        </mxCell>
        <mxCell id="BSkCamuPjItsBN7cK3fT-39" value="2" style="ellipse;whiteSpace=wrap;html=1;aspect=fixed;" vertex="1" parent="1">
          <mxGeometry x="2625" y="388" width="40" height="40" as="geometry" />
        </mxCell>
        <mxCell id="BSkCamuPjItsBN7cK3fT-40" style="rounded=0;orthogonalLoop=1;jettySize=auto;html=1;exitX=1;exitY=0.5;exitDx=0;exitDy=0;entryX=0;entryY=0.5;entryDx=0;entryDy=0;endArrow=none;endFill=0;strokeColor=#FF0000;" edge="1" parent="1" source="BSkCamuPjItsBN7cK3fT-43" target="BSkCamuPjItsBN7cK3fT-51">
          <mxGeometry relative="1" as="geometry" />
        </mxCell>
        <mxCell id="BSkCamuPjItsBN7cK3fT-41" style="rounded=0;orthogonalLoop=1;jettySize=auto;html=1;exitX=0;exitY=1;exitDx=0;exitDy=0;entryX=1;entryY=0;entryDx=0;entryDy=0;endArrow=none;endFill=0;strokeColor=#FF0000;" edge="1" parent="1" source="BSkCamuPjItsBN7cK3fT-43" target="BSkCamuPjItsBN7cK3fT-53">
          <mxGeometry relative="1" as="geometry" />
        </mxCell>
        <mxCell id="BSkCamuPjItsBN7cK3fT-42" style="rounded=0;orthogonalLoop=1;jettySize=auto;html=1;exitX=0.5;exitY=1;exitDx=0;exitDy=0;entryX=1;entryY=0.5;entryDx=0;entryDy=0;endArrow=none;endFill=0;" edge="1" parent="1" source="BSkCamuPjItsBN7cK3fT-43" target="BSkCamuPjItsBN7cK3fT-45">
          <mxGeometry relative="1" as="geometry" />
        </mxCell>
        <mxCell id="BSkCamuPjItsBN7cK3fT-43" value="B" style="ellipse;whiteSpace=wrap;html=1;aspect=fixed;strokeColor=#FF0000;" vertex="1" parent="1">
          <mxGeometry x="2505" y="305" width="40" height="40" as="geometry" />
        </mxCell>
        <mxCell id="BSkCamuPjItsBN7cK3fT-44" style="rounded=0;orthogonalLoop=1;jettySize=auto;html=1;exitX=0.5;exitY=1;exitDx=0;exitDy=0;entryX=0;entryY=0;entryDx=0;entryDy=0;endArrow=none;endFill=0;" edge="1" parent="1" source="BSkCamuPjItsBN7cK3fT-45" target="BSkCamuPjItsBN7cK3fT-47">
          <mxGeometry relative="1" as="geometry" />
        </mxCell>
        <mxCell id="BSkCamuPjItsBN7cK3fT-45" value="3" style="ellipse;whiteSpace=wrap;html=1;aspect=fixed;strokeColor=#FF0000;" vertex="1" parent="1">
          <mxGeometry x="2435" y="412" width="40" height="40" as="geometry" />
        </mxCell>
        <mxCell id="BSkCamuPjItsBN7cK3fT-46" style="rounded=0;orthogonalLoop=1;jettySize=auto;html=1;exitX=1;exitY=0.5;exitDx=0;exitDy=0;entryX=0;entryY=1;entryDx=0;entryDy=0;endArrow=none;endFill=0;" edge="1" parent="1" source="BSkCamuPjItsBN7cK3fT-47" target="BSkCamuPjItsBN7cK3fT-49">
          <mxGeometry relative="1" as="geometry" />
        </mxCell>
        <mxCell id="BSkCamuPjItsBN7cK3fT-47" value="3" style="ellipse;whiteSpace=wrap;html=1;aspect=fixed;" vertex="1" parent="1">
          <mxGeometry x="2475" y="488" width="40" height="40" as="geometry" />
        </mxCell>
        <mxCell id="BSkCamuPjItsBN7cK3fT-48" style="rounded=0;orthogonalLoop=1;jettySize=auto;html=1;exitX=1;exitY=0;exitDx=0;exitDy=0;entryX=0.5;entryY=1;entryDx=0;entryDy=0;endArrow=none;endFill=0;" edge="1" parent="1" source="BSkCamuPjItsBN7cK3fT-49" target="BSkCamuPjItsBN7cK3fT-39">
          <mxGeometry relative="1" as="geometry" />
        </mxCell>
        <mxCell id="BSkCamuPjItsBN7cK3fT-49" value="2" style="ellipse;whiteSpace=wrap;html=1;aspect=fixed;" vertex="1" parent="1">
          <mxGeometry x="2575" y="468" width="40" height="40" as="geometry" />
        </mxCell>
        <mxCell id="BSkCamuPjItsBN7cK3fT-50" style="rounded=0;orthogonalLoop=1;jettySize=auto;html=1;exitX=1;exitY=1;exitDx=0;exitDy=0;entryX=0;entryY=0;entryDx=0;entryDy=0;endArrow=none;endFill=0;" edge="1" parent="1" source="BSkCamuPjItsBN7cK3fT-51" target="BSkCamuPjItsBN7cK3fT-39">
          <mxGeometry relative="1" as="geometry" />
        </mxCell>
        <mxCell id="BSkCamuPjItsBN7cK3fT-51" value="2" style="ellipse;whiteSpace=wrap;html=1;aspect=fixed;strokeColor=#FF0000;" vertex="1" parent="1">
          <mxGeometry x="2585" y="313" width="40" height="40" as="geometry" />
        </mxCell>
        <mxCell id="BSkCamuPjItsBN7cK3fT-52" style="rounded=0;orthogonalLoop=1;jettySize=auto;html=1;exitX=0.5;exitY=1;exitDx=0;exitDy=0;entryX=0.5;entryY=0;entryDx=0;entryDy=0;endArrow=none;endFill=0;strokeColor=#FF0000;" edge="1" parent="1" source="BSkCamuPjItsBN7cK3fT-53" target="BSkCamuPjItsBN7cK3fT-45">
          <mxGeometry relative="1" as="geometry" />
        </mxCell>
        <mxCell id="BSkCamuPjItsBN7cK3fT-53" value="4" style="ellipse;whiteSpace=wrap;html=1;aspect=fixed;strokeColor=#FF0000;" vertex="1" parent="1">
          <mxGeometry x="2445" y="348" width="40" height="40" as="geometry" />
        </mxCell>
        <mxCell id="BSkCamuPjItsBN7cK3fT-54" value="" style="endArrow=none;html=1;rounded=0;exitX=1;exitY=0.5;exitDx=0;exitDy=0;entryX=0;entryY=1;entryDx=0;entryDy=0;strokeColor=#FF0000;" edge="1" parent="1" source="BSkCamuPjItsBN7cK3fT-45" target="BSkCamuPjItsBN7cK3fT-51">
          <mxGeometry width="50" height="50" relative="1" as="geometry">
            <mxPoint x="2525" y="433" as="sourcePoint" />
            <mxPoint x="2575" y="383" as="targetPoint" />
          </mxGeometry>
        </mxCell>
        <mxCell id="BSkCamuPjItsBN7cK3fT-55" value="" style="endArrow=none;html=1;rounded=0;exitX=1;exitY=0.5;exitDx=0;exitDy=0;entryX=0;entryY=0.5;entryDx=0;entryDy=0;" edge="1" parent="1" source="BSkCamuPjItsBN7cK3fT-45" target="BSkCamuPjItsBN7cK3fT-39">
          <mxGeometry width="50" height="50" relative="1" as="geometry">
            <mxPoint x="2485" y="442" as="sourcePoint" />
            <mxPoint x="2601" y="357" as="targetPoint" />
          </mxGeometry>
        </mxCell>
        <mxCell id="BSkCamuPjItsBN7cK3fT-56" value="" style="endArrow=none;html=1;rounded=0;exitX=1;exitY=0.5;exitDx=0;exitDy=0;entryX=0.25;entryY=0;entryDx=0;entryDy=0;entryPerimeter=0;" edge="1" parent="1" source="BSkCamuPjItsBN7cK3fT-45" target="BSkCamuPjItsBN7cK3fT-49">
          <mxGeometry width="50" height="50" relative="1" as="geometry">
            <mxPoint x="2485" y="442" as="sourcePoint" />
            <mxPoint x="2505" y="498" as="targetPoint" />
          </mxGeometry>
        </mxCell>
        <mxCell id="BSkCamuPjItsBN7cK3fT-57" value="" style="endArrow=none;html=1;rounded=0;exitX=1;exitY=1;exitDx=0;exitDy=0;" edge="1" parent="1" source="BSkCamuPjItsBN7cK3fT-53">
          <mxGeometry width="50" height="50" relative="1" as="geometry">
            <mxPoint x="2485" y="442" as="sourcePoint" />
            <mxPoint x="2585" y="468" as="targetPoint" />
          </mxGeometry>
        </mxCell>
        <mxCell id="BSkCamuPjItsBN7cK3fT-58" value="" style="endArrow=none;html=1;rounded=0;exitX=0.5;exitY=1;exitDx=0;exitDy=0;" edge="1" parent="1" source="BSkCamuPjItsBN7cK3fT-43">
          <mxGeometry width="50" height="50" relative="1" as="geometry">
            <mxPoint x="2489" y="392" as="sourcePoint" />
            <mxPoint x="2585" y="468" as="targetPoint" />
          </mxGeometry>
        </mxCell>
        <mxCell id="BSkCamuPjItsBN7cK3fT-59" value="" style="endArrow=none;html=1;rounded=0;entryX=1;entryY=0;entryDx=0;entryDy=0;" edge="1" parent="1" target="BSkCamuPjItsBN7cK3fT-47">
          <mxGeometry width="50" height="50" relative="1" as="geometry">
            <mxPoint x="2595" y="348" as="sourcePoint" />
            <mxPoint x="2595" y="478" as="targetPoint" />
          </mxGeometry>
        </mxCell>
        <mxCell id="BSkCamuPjItsBN7cK3fT-60" value="" style="endArrow=none;html=1;rounded=0;entryX=1;entryY=0;entryDx=0;entryDy=0;" edge="1" parent="1" target="BSkCamuPjItsBN7cK3fT-47">
          <mxGeometry width="50" height="50" relative="1" as="geometry">
            <mxPoint x="2625" y="408" as="sourcePoint" />
            <mxPoint x="2519" y="504" as="targetPoint" />
          </mxGeometry>
        </mxCell>
        <mxCell id="BSkCamuPjItsBN7cK3fT-61" value="" style="endArrow=none;html=1;rounded=0;exitX=0.5;exitY=1;exitDx=0;exitDy=0;" edge="1" parent="1" source="BSkCamuPjItsBN7cK3fT-43">
          <mxGeometry width="50" height="50" relative="1" as="geometry">
            <mxPoint x="2535" y="355" as="sourcePoint" />
            <mxPoint x="2625" y="408" as="targetPoint" />
          </mxGeometry>
        </mxCell>
        <mxCell id="BSkCamuPjItsBN7cK3fT-62" value="" style="endArrow=none;html=1;rounded=0;entryX=0.5;entryY=0;entryDx=0;entryDy=0;" edge="1" parent="1" target="BSkCamuPjItsBN7cK3fT-47">
          <mxGeometry width="50" height="50" relative="1" as="geometry">
            <mxPoint x="2525" y="348" as="sourcePoint" />
            <mxPoint x="2605" y="488" as="targetPoint" />
          </mxGeometry>
        </mxCell>
        <mxCell id="BSkCamuPjItsBN7cK3fT-65" value="" style="shape=flexArrow;endArrow=classic;html=1;rounded=0;" edge="1" parent="1">
          <mxGeometry width="50" height="50" relative="1" as="geometry">
            <mxPoint x="2050" y="387" as="sourcePoint" />
            <mxPoint x="2118" y="387" as="targetPoint" />
          </mxGeometry>
        </mxCell>
        <mxCell id="BSkCamuPjItsBN7cK3fT-66" value="1" style="text;html=1;align=center;verticalAlign=middle;resizable=0;points=[];autosize=1;strokeColor=none;fillColor=none;" vertex="1" parent="1">
          <mxGeometry x="2500" y="275" width="30" height="30" as="geometry" />
        </mxCell>
        <mxCell id="BSkCamuPjItsBN7cK3fT-67" value="1" style="text;html=1;align=center;verticalAlign=middle;resizable=0;points=[];autosize=1;strokeColor=none;fillColor=none;" vertex="1" parent="1">
          <mxGeometry x="2600" y="280" width="30" height="30" as="geometry" />
        </mxCell>
        <mxCell id="BSkCamuPjItsBN7cK3fT-68" value="1" style="text;html=1;align=center;verticalAlign=middle;resizable=0;points=[];autosize=1;strokeColor=none;fillColor=none;" vertex="1" parent="1">
          <mxGeometry x="2430" y="326.5" width="30" height="30" as="geometry" />
        </mxCell>
        <mxCell id="BSkCamuPjItsBN7cK3fT-69" value="1" style="text;html=1;align=center;verticalAlign=middle;resizable=0;points=[];autosize=1;strokeColor=none;fillColor=none;" vertex="1" parent="1">
          <mxGeometry x="2405" y="398" width="30" height="30" as="geometry" />
        </mxCell>
        <mxCell id="BSkCamuPjItsBN7cK3fT-70" value="0" style="text;html=1;align=center;verticalAlign=middle;resizable=0;points=[];autosize=1;strokeColor=none;fillColor=none;" vertex="1" parent="1">
          <mxGeometry x="2460" y="528" width="30" height="30" as="geometry" />
        </mxCell>
        <mxCell id="BSkCamuPjItsBN7cK3fT-71" value="0" style="text;html=1;align=center;verticalAlign=middle;resizable=0;points=[];autosize=1;strokeColor=none;fillColor=none;" vertex="1" parent="1">
          <mxGeometry x="2590" y="515" width="30" height="30" as="geometry" />
        </mxCell>
        <mxCell id="BSkCamuPjItsBN7cK3fT-72" value="0" style="text;html=1;align=center;verticalAlign=middle;resizable=0;points=[];autosize=1;strokeColor=none;fillColor=none;" vertex="1" parent="1">
          <mxGeometry x="2665" y="430" width="30" height="30" as="geometry" />
        </mxCell>
      </root>
    </mxGraphModel>
  </diagram>
</mxfile>
